# xmcd
#
# Track frame offsets:
#	150
#	18354
#	35607
#	54681
#	66837
#	80684
#	101819
#	123248
#
# Disc length: 2002 seconds
#
# Revision: 1
# Processed by: cddbd v1.5.2PL0 Copyright (c) Steve Scherf et al.
# Submitted via: audiograbber 1.83.01
#
DISCID=6a07d008
DTITLE=Jimmy Witherspoon - In Person
DYEAR=1961
DGENRE=Blues
TTITLE0=I'll always be in love
TTITLE1=Gee, Baby ain't I good to you
TTITLE2=See See rider
TTITLE3=I make a lot of money
TTITLE4=Blowin' the blues
TTITLE5=Tain't nobody's business
TTITLE6=Everything you do is wrong
TTITLE7=Roll 'em pete
EXTD=
EXTT0=
EXTT1=
EXTT2=
EXTT3=
EXTT4=
EXTT5=
EXTT6=
EXTT7=
PLAYORDER=
